<svg width="68" height="32" viewBox="0 0 68 32" fill="none" xmlns="http://www.w3.org/2000/svg">
<g filter="url(#filter0_d_1_286)">
<path d="M63.1418 6.00937L56.349 5.03941C55.1104 4.27858 53.825 3.59749 52.4997 2.99981C48.1231 1.01758 43.373 -0.00526887 38.5679 2.04093e-05H37.3878C31.7173 0.00408898 26.1374 1.42689 21.157 4.13862L17.7288 6.00856C13.716 6.05372 9.78043 7.12092 6.29411 9.10803C4.87728 9.92054 4.00244 11.428 4 13.0607V18.998C4 19.5505 4.44759 19.9981 5.00016 19.9981H8.35791C9.45003 23.1134 12.8611 24.7539 15.9767 23.6619C17.6918 23.061 19.0399 21.7126 19.6409 19.9981H46.358C47.4501 23.1134 50.8612 24.7539 53.9768 23.6619C55.6915 23.061 57.0399 21.7126 57.6409 19.9981H57.9998C58.1272 19.9981 58.2533 19.9741 58.3717 19.9269L61.6107 18.6274C63.0576 18.0545 64.0053 16.6541 64 15.0987V6.99927C64 6.50208 63.6342 6.08016 63.1418 6.00937ZM17.9189 18.7983C17.4766 20.9624 15.3635 22.3583 13.1992 21.916C11.0345 21.4738 9.63843 19.361 10.0807 17.1964C10.5234 15.0323 12.6365 13.6364 14.8008 14.0787C16.6632 14.4591 18.0002 16.0975 17.9998 17.9984C17.9998 18.2669 17.9726 18.535 17.9189 18.7983ZM35.9999 17.9984H19.9998C19.9998 14.6849 17.3138 11.9988 14 11.9988C10.6862 11.9988 7.99984 14.6849 7.99984 17.9984H5.99992V13.0607C6.00114 12.1448 6.49186 11.299 7.28695 10.8441C10.5503 8.98109 14.2425 8.00055 17.9998 7.99933H35.9999V17.9984ZM35.9999 5.99961H21.922L22.1148 5.89423C26.3901 3.57105 31.1391 2.25404 35.9999 2.04369V5.99961ZM37.9998 1.99975H38.5658C42.5958 1.99527 46.5891 2.76017 50.3322 4.25376L48.5862 5.99961H37.9998V1.99975ZM55.9189 18.7983C55.4766 20.9624 53.3636 22.3583 51.1989 21.916C49.0346 21.4738 47.6385 19.361 48.0808 17.1964C48.5231 15.0323 50.6365 13.6364 52.8008 14.0787C54.6632 14.4591 56.0003 16.0975 55.9999 17.9984C55.9999 18.2669 55.9726 18.535 55.9189 18.7983ZM62.0001 8.99899H59V10.9991H62.0001V15.0987C62.0025 15.8355 61.5533 16.4987 60.8681 16.7692L57.9998 17.9211C57.9998 17.8291 57.988 17.738 57.9819 17.646C57.9758 17.5541 57.9738 17.4463 57.964 17.3462C57.9538 17.2461 57.9339 17.146 57.918 17.0463C57.9018 16.9462 57.89 16.8461 57.87 16.7554C57.8501 16.6643 57.8208 16.5634 57.7947 16.4682C57.7687 16.3734 57.7488 16.2773 57.7187 16.1842C57.6889 16.0914 57.6527 16.0023 57.619 15.9112C57.5848 15.8204 57.5539 15.7265 57.5189 15.6361C57.4839 15.5462 57.4367 15.4644 57.3948 15.3794C57.3528 15.2944 57.3118 15.2012 57.265 15.1153C57.2178 15.0295 57.1649 14.9563 57.1197 14.8765C57.0749 14.7964 57.02 14.7052 56.963 14.6235C56.9057 14.5413 56.8528 14.4766 56.7978 14.4025C56.7429 14.3285 56.6806 14.2414 56.6168 14.1645C56.5529 14.0876 56.4931 14.0274 56.4308 13.9643C56.369 13.9017 56.2998 13.8166 56.231 13.7467C56.1618 13.6767 56.0939 13.6214 56.0251 13.5595C55.956 13.4977 55.8819 13.4244 55.8058 13.3593C55.7301 13.2946 55.6528 13.2446 55.5771 13.1876C55.501 13.1307 55.425 13.0696 55.3452 13.0163C55.265 12.9635 55.1751 12.9167 55.0893 12.8605C55.003 12.8044 54.933 12.7604 54.852 12.7177C54.7711 12.6746 54.6702 12.6294 54.5782 12.5855C54.4862 12.5415 54.4142 12.5025 54.3292 12.4667C54.2441 12.4305 54.129 12.3926 54.0293 12.3568C53.9292 12.3206 53.8641 12.2925 53.779 12.2657C53.6651 12.2307 53.5483 12.2055 53.4319 12.1766C53.3559 12.1587 53.283 12.1347 53.2061 12.1188C53.0832 12.0936 52.9571 12.0798 52.8322 12.0614C52.7581 12.0517 52.6873 12.0354 52.6133 12.0285C52.4131 12.0085 52.2133 11.9976 52.0033 11.9976C48.6907 12.0008 46.0064 14.6849 46.0032 17.9972H38.0002V7.99893H49C49.2653 7.99893 49.5196 7.89355 49.7068 7.70599L52.3 5.11305C53.3884 5.63099 54.4468 6.20995 55.4701 6.8471C55.5881 6.92074 55.72 6.96916 55.8579 6.98909L62.0001 7.86588V8.99899Z" fill="#332208"/>
</g>
<defs>
<filter id="filter0_d_1_286" x="0" y="0" width="68" height="32" filterUnits="userSpaceOnUse" color-interpolation-filters="sRGB">
<feFlood flood-opacity="0" result="BackgroundImageFix"/>
<feColorMatrix in="SourceAlpha" type="matrix" values="0 0 0 0 0 0 0 0 0 0 0 0 0 0 0 0 0 0 127 0" result="hardAlpha"/>
<feOffset dy="4"/>
<feGaussianBlur stdDeviation="2"/>
<feComposite in2="hardAlpha" operator="out"/>
<feColorMatrix type="matrix" values="0 0 0 0 0 0 0 0 0 0 0 0 0 0 0 0 0 0 0.25 0"/>
<feBlend mode="normal" in2="BackgroundImageFix" result="effect1_dropShadow_1_286"/>
<feBlend mode="normal" in="SourceGraphic" in2="effect1_dropShadow_1_286" result="shape"/>
</filter>
</defs>
</svg>
